<svg width="3557" height="765" xmlns="http://www.w3.org/2000/svg" xmlns:xlink="http://www.w3.org/1999/xlink" xml:space="preserve" overflow="hidden"><defs><filter id="fx0" x="-10%" y="-10%" width="120%" height="120%" filterUnits="userSpaceOnUse" primitiveUnits="userSpaceOnUse"><feComponentTransfer color-interpolation-filters="sRGB"><feFuncR type="discrete" tableValues="0 0"/><feFuncG type="discrete" tableValues="0 0"/><feFuncB type="discrete" tableValues="0 0"/><feFuncA type="linear" slope="1" intercept="0"/></feComponentTransfer><feGaussianBlur stdDeviation="6.87693 6.88396"/></filter><clipPath id="clip1"><rect x="569" y="708" width="3557" height="765"/></clipPath><clipPath id="clip2"><rect x="0" y="0" width="1780" height="384"/></clipPath></defs><g clip-path="url(#clip1)" transform="translate(-569 -708)"><g filter="url(#fx0)" transform="matrix(1.99944 0 0 1.9974 568 707)"><g clip-path="url(#clip2)" transform="translate(-5.68434e-14 0)"><path d="M9.74114e-07-1.5 277.94-1.49982C278.769-1.49982 279.44-0.828246 279.44 0.000181471 279.44 0.828609 278.769 1.50018 277.94 1.50018L-9.74114e-07 1.5C-0.828428 1.5-1.5 0.828426-1.5-9.74114e-07-1.5-0.828428-0.828426-1.5 9.74114e-07-1.5ZM-4.46593e-06 6.87693C-3.79803 6.87693-6.87693 3.79802-6.87693-4.46593e-06-6.87693-3.79803-3.79802-6.87693 4.46593e-06-6.87693 3.79803-6.87693 6.87693-3.79802 6.87693 4.46593e-06 6.87693 3.79803 3.79802 6.87693-4.46593e-06 6.87693Z" fill="#595959" transform="matrix(-1 0 0 1.00102 1616.57 28.2868)"/><path d="M0 0 63.221 74.4207" stroke="#595959" stroke-width="3" stroke-linecap="round" stroke-linejoin="round" stroke-miterlimit="10" fill="none" fill-rule="evenodd" transform="matrix(-1 0 0 1.00102 1338.83 28.2868)"/><path d="M0 0 289.289 0.000180497" stroke="#595959" stroke-width="3" stroke-linecap="round" stroke-linejoin="round" stroke-miterlimit="10" fill="none" fill-rule="evenodd" transform="matrix(-1 0 0 1.00102 1275.82 102.884)"/><path d="M9.74114e-07-1.5 277.94-1.49982C278.769-1.49982 279.44-0.828246 279.44 0.000181471 279.44 0.828609 278.769 1.50018 277.94 1.50018L-9.74114e-07 1.5C-0.828428 1.5-1.5 0.828426-1.5-9.74114e-07-1.5-0.828428-0.828426-1.5 9.74114e-07-1.5ZM-4.46593e-06 6.87693C-3.79803 6.87693-6.87693 3.79802-6.87693-4.46593e-06-6.87693-3.79803-3.79802-6.87693 4.46593e-06-6.87693 3.79803-6.87693 6.87693-3.79802 6.87693 4.46593e-06 6.87693 3.79803 3.79802 6.87693-4.46593e-06 6.87693Z" fill="#595959" transform="matrix(-1 0 0 1.00102 1751.6 115.901)"/><path d="M0 0 63.221 74.4201" stroke="#595959" stroke-width="3" stroke-linecap="round" stroke-linejoin="round" stroke-miterlimit="10" fill="none" fill-rule="evenodd" transform="matrix(-1 0 0 1.00102 1473.87 115.901)"/><path d="M0 0 368.373 0.000180497" stroke="#595959" stroke-width="3" stroke-linecap="round" stroke-linejoin="round" stroke-miterlimit="10" fill="none" fill-rule="evenodd" transform="matrix(-1 0 0 1.00102 1410.42 190.498)"/><path d="M0 0 368.373 0.000180497" stroke="#595959" stroke-width="3" stroke-linecap="round" stroke-linejoin="round" stroke-miterlimit="10" fill="none" fill-rule="evenodd" transform="matrix(-1 0 0 1.00102 1354.9 288.125)"/><path d="M1419.28 353.389 1354.63 288.125" stroke="#595959" stroke-width="3" stroke-linecap="round" stroke-linejoin="round" stroke-miterlimit="10" fill="none" fill-rule="evenodd"/><path d="M9.74114e-07-1.5 277.94-1.49982C278.769-1.49982 279.44-0.828246 279.44 0.000181471 279.44 0.828609 278.769 1.50018 277.94 1.50018L-9.74114e-07 1.5C-0.828428 1.5-1.5 0.828426-1.5-9.74114e-07-1.5-0.828428-0.828426-1.5 9.74114e-07-1.5ZM-4.46593e-06 6.87693C-3.79803 6.87693-6.87693 3.79802-6.87693-4.46593e-06-6.87693-3.79803-3.79802-6.87693 4.46593e-06-6.87693 3.79803-6.87693 6.87693-3.79802 6.87693 4.46593e-06 6.87693 3.79803 3.79802 6.87693-4.46593e-06 6.87693Z" fill="#595959" transform="matrix(-1 0 0 1.00102 1697.09 353.711)"/><path d="M0 0 67.2831 61.959" stroke="#595959" stroke-width="3" stroke-linecap="round" stroke-linejoin="round" stroke-miterlimit="10" fill="none" fill-rule="evenodd" transform="matrix(-1 0 0 1.00102 1454.42 259.087)"/><path d="M1629.52 260.589 1454.16 260.589C1453.33 260.589 1452.66 259.917 1452.66 259.087 1452.66 258.258 1453.33 257.586 1454.16 257.586L1629.52 257.586C1630.35 257.586 1631.02 258.258 1631.02 259.087 1631.02 259.917 1630.35 260.589 1629.52 260.589ZM1629.52 252.204C1633.32 252.204 1636.4 255.286 1636.4 259.087 1636.4 262.889 1633.32 265.971 1629.52 265.971 1625.72 265.971 1622.64 262.889 1622.64 259.087 1622.64 255.286 1625.72 252.204 1629.52 252.204Z" fill="#595959"/><path d="M1500.52 192.89 1446.66 153.95" stroke="#595959" stroke-width="3" stroke-linecap="round" stroke-linejoin="round" stroke-miterlimit="10" fill="none" fill-rule="evenodd"/><path d="M1676.03 194.503 1500.67 194.503C1499.84 194.503 1499.17 193.831 1499.17 193.001 1499.17 192.172 1499.84 191.5 1500.67 191.5L1676.03 191.5C1676.86 191.5 1677.53 192.172 1677.53 193.001 1677.53 193.831 1676.86 194.503 1676.03 194.503ZM1676.03 186.117C1679.83 186.117 1682.91 189.2 1682.91 193.001 1682.91 196.803 1679.83 199.885 1676.03 199.885 1672.24 199.885 1669.16 196.803 1669.16 193.001 1669.16 189.2 1672.24 186.117 1676.03 186.117Z" fill="#595959"/><path d="M9.74114e-07-1.5 277.94-1.49982C278.769-1.49982 279.44-0.828246 279.44 0.000181471 279.44 0.828609 278.769 1.50018 277.94 1.50018L-9.74114e-07 1.5C-0.828428 1.5-1.5 0.828426-1.5-9.74114e-07-1.5-0.828428-0.828426-1.5 9.74114e-07-1.5ZM-4.46593e-06 6.87693C-3.79803 6.87693-6.87693 3.79802-6.87693-4.46593e-06-6.87693-3.79803-3.79802-6.87693 4.46593e-06-6.87693 3.79803-6.87693 6.87693-3.79802 6.87693 4.46593e-06 6.87693 3.79803 3.79802 6.87693-4.46593e-06 6.87693Z" fill="#595959" transform="matrix(1 -1.2259e-16 -1.22465e-16 -1.00102 163.296 355.713)"/><path d="M0 0 63.221 74.4207" stroke="#595959" stroke-width="3" stroke-linecap="round" stroke-linejoin="round" stroke-miterlimit="10" fill="none" fill-rule="evenodd" transform="matrix(1 -1.2259e-16 -1.22465e-16 -1.00102 441.374 355.613)"/><path d="M0 0 289.289 0.000180497" stroke="#595959" stroke-width="3" stroke-linecap="round" stroke-linejoin="round" stroke-miterlimit="10" fill="none" fill-rule="evenodd" transform="matrix(1 -1.2259e-16 -1.22465e-16 -1.00102 504.392 281.116)"/><path d="M9.74114e-07-1.5 277.94-1.49982C278.769-1.49982 279.44-0.828246 279.44 0.000181471 279.44 0.828609 278.769 1.50018 277.94 1.50018L-9.74114e-07 1.5C-0.828428 1.5-1.5 0.828426-1.5-9.74114e-07-1.5-0.828428-0.828426-1.5 9.74114e-07-1.5ZM-4.46593e-06 6.87693C-3.79803 6.87693-6.87693 3.79802-6.87693-4.46593e-06-6.87693-3.79803-3.79802-6.87693 4.46593e-06-6.87693 3.79803-6.87693 6.87693-3.79802 6.87693 4.46593e-06 6.87693 3.79803 3.79802 6.87693-4.46593e-06 6.87693Z" fill="#595959" transform="matrix(1 -1.2259e-16 -1.22465e-16 -1.00102 28.258 268.099)"/><path d="M0 0 63.221 74.4201" stroke="#595959" stroke-width="3" stroke-linecap="round" stroke-linejoin="round" stroke-miterlimit="10" fill="none" fill-rule="evenodd" transform="matrix(1 -1.2259e-16 -1.22465e-16 -1.00102 306.336 267.998)"/><path d="M0 0 368.373 0.000180497" stroke="#595959" stroke-width="3" stroke-linecap="round" stroke-linejoin="round" stroke-miterlimit="10" fill="none" fill-rule="evenodd" transform="matrix(1 -1.2259e-16 -1.22465e-16 -1.00102 369.854 193.502)"/><path d="M0 0 368.373 0.000180497" stroke="#595959" stroke-width="3" stroke-linecap="round" stroke-linejoin="round" stroke-miterlimit="10" fill="none" fill-rule="evenodd" transform="matrix(1 -1.2259e-16 -1.22465e-16 -1.00102 425.37 95.3744)"/><path d="M360.851 30.2895 425.502 95.5538" stroke="#595959" stroke-width="3" stroke-linecap="round" stroke-linejoin="round" stroke-miterlimit="10" fill="none" fill-rule="evenodd"/><path d="M9.74114e-07-1.5 277.94-1.49982C278.769-1.49982 279.44-0.828246 279.44 0.000181471 279.44 0.828609 278.769 1.50018 277.94 1.50018L-9.74114e-07 1.5C-0.828428 1.5-1.5 0.828426-1.5-9.74114e-07-1.5-0.828428-0.828426-1.5 9.74114e-07-1.5ZM-4.46593e-06 6.87693C-3.79803 6.87693-6.87693 3.79802-6.87693-4.46593e-06-6.87693-3.79803-3.79802-6.87693 4.46593e-06-6.87693 3.79803-6.87693 6.87693-3.79802 6.87693 4.46593e-06 6.87693 3.79803 3.79802 6.87693-4.46593e-06 6.87693Z" fill="#595959" transform="matrix(1 -1.2259e-16 -1.22465e-16 -1.00102 82.7733 30.2895)"/><path d="M0 0 67.2831 61.959" stroke="#595959" stroke-width="3" stroke-linecap="round" stroke-linejoin="round" stroke-miterlimit="10" fill="none" fill-rule="evenodd" transform="matrix(1 -1.2259e-16 -1.22465e-16 -1.00102 325.842 124.854)"/><path d="M150.292 123.411 325.654 123.411C326.482 123.411 327.154 124.084 327.154 124.913 327.154 125.742 326.482 126.414 325.654 126.414L150.292 126.414C149.464 126.414 148.792 125.742 148.792 124.913 148.792 124.083 149.464 123.411 150.292 123.411ZM150.292 131.797C146.494 131.797 143.415 128.715 143.415 124.913 143.415 121.111 146.494 118.029 150.292 118.029 154.09 118.029 157.169 121.111 157.169 124.913 157.169 128.715 154.09 131.797 150.292 131.797Z" fill="#595959"/><path d="M279.328 190.999 333.196 229.938" stroke="#595959" stroke-width="3" stroke-linecap="round" stroke-linejoin="round" stroke-miterlimit="10" fill="none" fill-rule="evenodd"/><path d="M103.779 189.497 279.141 189.497C279.969 189.497 280.641 190.17 280.641 190.999 280.641 191.828 279.969 192.501 279.141 192.501L103.779 192.5C102.951 192.5 102.279 191.828 102.279 190.999 102.279 190.17 102.951 189.497 103.779 189.497ZM103.779 197.883C99.9811 197.883 96.9022 194.801 96.9022 190.999 96.9022 187.197 99.9811 184.115 103.779 184.115 107.577 184.115 110.656 187.197 110.656 190.999 110.656 194.801 107.577 197.883 103.779 197.883Z" fill="#595959"/></g></g><path d="M2.23234e-06-3.4375 555.724-3.43714C557.623-3.43714 559.162-1.89812 559.162 0.000363125 559.162 1.89884 557.623 3.43786 555.724 3.43786L-2.23234e-06 3.4375C-1.89848 3.4375-3.4375 1.89848-3.4375-2.23234e-06-3.4375-1.89848-1.89848-3.4375 2.23234e-06-3.4375ZM-8.92936e-06 13.75C-7.59392 13.75-13.75 7.59391-13.75-8.92936e-06-13.75-7.59392-7.59391-13.75 8.92936e-06-13.75 7.59392-13.75 13.75-7.59391 13.75 8.92936e-06 13.75 7.59392 7.59391 13.75-8.92936e-06 13.75Z" fill="#595959" transform="matrix(-1 0 0 1 3800.22 763.5)"/><path d="M0 0 126.407 148.8" stroke="#595959" stroke-width="6.875" stroke-linecap="round" stroke-linejoin="round" stroke-miterlimit="10" fill="none" fill-rule="evenodd" transform="matrix(-1 0 0 1 3244.91 763.5)"/><path d="M0 0 578.414 0.000360892" stroke="#595959" stroke-width="6.875" stroke-linecap="round" stroke-linejoin="round" stroke-miterlimit="10" fill="none" fill-rule="evenodd" transform="matrix(-1 0 0 1 3118.91 912.5)"/><path d="M2.23234e-06-3.4375 555.724-3.43714C557.623-3.43714 559.162-1.89812 559.162 0.000363125 559.162 1.89884 557.623 3.43786 555.724 3.43786L-2.23234e-06 3.4375C-1.89848 3.4375-3.4375 1.89848-3.4375-2.23234e-06-3.4375-1.89848-1.89848-3.4375 2.23234e-06-3.4375ZM-8.92936e-06 13.75C-7.59392 13.75-13.75 7.59391-13.75-8.92936e-06-13.75-7.59392-7.59391-13.75 8.92936e-06-13.75 7.59392-13.75 13.75-7.59391 13.75 8.92936e-06 13.75 7.59392 7.59391 13.75-8.92936e-06 13.75Z" fill="#595959" transform="matrix(-1 0 0 1 4070.22 938.5)"/><path d="M0 0 126.407 148.798" stroke="#595959" stroke-width="6.875" stroke-linecap="round" stroke-linejoin="round" stroke-miterlimit="10" fill="none" fill-rule="evenodd" transform="matrix(-1 0 0 1 3514.91 938.5)"/><path d="M0 0 736.539 0.000360892" stroke="#595959" stroke-width="6.875" stroke-linecap="round" stroke-linejoin="round" stroke-miterlimit="10" fill="none" fill-rule="evenodd" transform="matrix(-1 0 0 1 3388.04 1087.5)"/><path d="M0 0 736.539 0.000360892" stroke="#595959" stroke-width="6.875" stroke-linecap="round" stroke-linejoin="round" stroke-miterlimit="10" fill="none" fill-rule="evenodd" transform="matrix(-1 0 0 1 3277.04 1282.5)"/><path d="M3405.76 1412.86 3276.5 1282.5" stroke="#595959" stroke-width="6.875" stroke-linecap="round" stroke-linejoin="round" stroke-miterlimit="10" fill="none" fill-rule="evenodd"/><path d="M2.23234e-06-3.4375 555.724-3.43714C557.623-3.43714 559.162-1.89812 559.162 0.000363125 559.162 1.89884 557.623 3.43786 555.724 3.43786L-2.23234e-06 3.4375C-1.89848 3.4375-3.4375 1.89848-3.4375-2.23234e-06-3.4375-1.89848-1.89848-3.4375 2.23234e-06-3.4375ZM-8.92936e-06 13.75C-7.59392 13.75-13.75 7.59391-13.75-8.92936e-06-13.75-7.59392-7.59391-13.75 8.92936e-06-13.75 7.59392-13.75 13.75-7.59391 13.75 8.92936e-06 13.75 7.59392 7.59391 13.75-8.92936e-06 13.75Z" fill="#595959" transform="matrix(-1 0 0 1 3961.22 1413.5)"/><path d="M0 0 134.528 123.883" stroke="#595959" stroke-width="6.875" stroke-linecap="round" stroke-linejoin="round" stroke-miterlimit="10" fill="none" fill-rule="evenodd" transform="matrix(-1 0 0 1 3476.03 1224.5)"/><path d="M3826.13 1227.94 3475.5 1227.94C3473.6 1227.94 3472.06 1226.4 3472.06 1224.5 3472.06 1222.6 3473.6 1221.06 3475.5 1221.06L3826.13 1221.06C3828.02 1221.06 3829.56 1222.6 3829.56 1224.5 3829.56 1226.4 3828.02 1227.94 3826.13 1227.94ZM3826.13 1210.75C3833.72 1210.75 3839.88 1216.91 3839.88 1224.5 3839.88 1232.09 3833.72 1238.25 3826.13 1238.25 3818.53 1238.25 3812.38 1232.09 3812.38 1224.5 3812.38 1216.91 3818.53 1210.75 3826.13 1210.75Z" fill="#595959"/><path d="M3568.2 1092.28 3460.5 1014.5" stroke="#595959" stroke-width="6.875" stroke-linecap="round" stroke-linejoin="round" stroke-miterlimit="10" fill="none" fill-rule="evenodd"/><path d="M3919.12 1095.94 3568.5 1095.94C3566.6 1095.94 3565.06 1094.4 3565.06 1092.5 3565.06 1090.6 3566.6 1089.06 3568.5 1089.06L3919.12 1089.06C3921.02 1089.06 3922.56 1090.6 3922.56 1092.5 3922.56 1094.4 3921.02 1095.94 3919.12 1095.94ZM3919.12 1078.75C3926.72 1078.75 3932.88 1084.91 3932.88 1092.5 3932.88 1100.09 3926.72 1106.25 3919.12 1106.25 3911.53 1106.25 3905.38 1100.09 3905.38 1092.5 3905.38 1084.91 3911.53 1078.75 3919.12 1078.75Z" fill="#595959"/><path d="M2.23234e-06-3.4375 555.724-3.43714C557.623-3.43714 559.162-1.89812 559.162 0.000363125 559.162 1.89884 557.623 3.43786 555.724 3.43786L-2.23234e-06 3.4375C-1.89848 3.4375-3.4375 1.89848-3.4375-2.23234e-06-3.4375-1.89848-1.89848-3.4375 2.23234e-06-3.4375ZM-8.92936e-06 13.75C-7.59392 13.75-13.75 7.59391-13.75-8.92936e-06-13.75-7.59392-7.59391-13.75 8.92936e-06-13.75 7.59392-13.75 13.75-7.59391 13.75 8.92936e-06 13.75 7.59392 7.59391 13.75-8.92936e-06 13.75Z" fill="#595959" transform="matrix(1 -1.22465e-16 -1.22465e-16 -1 894.5 1417.5)"/><path d="M0 0 126.407 148.8" stroke="#595959" stroke-width="6.875" stroke-linecap="round" stroke-linejoin="round" stroke-miterlimit="10" fill="none" fill-rule="evenodd" transform="matrix(1 -1.22465e-16 -1.22465e-16 -1 1450.5 1417.3)"/><path d="M0 0 578.414 0.000360892" stroke="#595959" stroke-width="6.875" stroke-linecap="round" stroke-linejoin="round" stroke-miterlimit="10" fill="none" fill-rule="evenodd" transform="matrix(1 -1.22465e-16 -1.22465e-16 -1 1576.5 1268.5)"/><path d="M2.23234e-06-3.4375 555.724-3.43714C557.623-3.43714 559.162-1.89812 559.162 0.000363125 559.162 1.89884 557.623 3.43786 555.724 3.43786L-2.23234e-06 3.4375C-1.89848 3.4375-3.4375 1.89848-3.4375-2.23234e-06-3.4375-1.89848-1.89848-3.4375 2.23234e-06-3.4375ZM-8.92936e-06 13.75C-7.59392 13.75-13.75 7.59391-13.75-8.92936e-06-13.75-7.59392-7.59391-13.75 8.92936e-06-13.75 7.59392-13.75 13.75-7.59391 13.75 8.92936e-06 13.75 7.59392 7.59391 13.75-8.92936e-06 13.75Z" fill="#595959" transform="matrix(1 -1.22465e-16 -1.22465e-16 -1 624.5 1242.5)"/><path d="M0 0 126.407 148.798" stroke="#595959" stroke-width="6.875" stroke-linecap="round" stroke-linejoin="round" stroke-miterlimit="10" fill="none" fill-rule="evenodd" transform="matrix(1 -1.22465e-16 -1.22465e-16 -1 1180.5 1242.3)"/><path d="M0 0 736.539 0.000360892" stroke="#595959" stroke-width="6.875" stroke-linecap="round" stroke-linejoin="round" stroke-miterlimit="10" fill="none" fill-rule="evenodd" transform="matrix(1 -1.22465e-16 -1.22465e-16 -1 1307.5 1093.5)"/><path d="M0 0 736.539 0.000360892" stroke="#595959" stroke-width="6.875" stroke-linecap="round" stroke-linejoin="round" stroke-miterlimit="10" fill="none" fill-rule="evenodd" transform="matrix(1 -1.22465e-16 -1.22465e-16 -1 1418.5 897.5)"/><path d="M1289.5 767.5 1418.76 897.859" stroke="#595959" stroke-width="6.875" stroke-linecap="round" stroke-linejoin="round" stroke-miterlimit="10" fill="none" fill-rule="evenodd"/><path d="M2.23234e-06-3.4375 555.724-3.43714C557.623-3.43714 559.162-1.89812 559.162 0.000363125 559.162 1.89884 557.623 3.43786 555.724 3.43786L-2.23234e-06 3.4375C-1.89848 3.4375-3.4375 1.89848-3.4375-2.23234e-06-3.4375-1.89848-1.89848-3.4375 2.23234e-06-3.4375ZM-8.92936e-06 13.75C-7.59392 13.75-13.75 7.59391-13.75-8.92936e-06-13.75-7.59392-7.59391-13.75 8.92936e-06-13.75 7.59392-13.75 13.75-7.59391 13.75 8.92936e-06 13.75 7.59392 7.59391 13.75-8.92936e-06 13.75Z" fill="#595959" transform="matrix(1 -1.22465e-16 -1.22465e-16 -1 733.5 767.5)"/><path d="M0 0 134.528 123.883" stroke="#595959" stroke-width="6.875" stroke-linecap="round" stroke-linejoin="round" stroke-miterlimit="10" fill="none" fill-rule="evenodd" transform="matrix(1 -1.22465e-16 -1.22465e-16 -1 1219.5 956.383)"/><path d="M868.5 953.063 1219.13 953.063C1221.02 953.063 1222.56 954.602 1222.56 956.501 1222.56 958.399 1221.02 959.938 1219.13 959.938L868.5 959.938C866.602 959.938 865.063 958.399 865.063 956.5 865.063 954.602 866.602 953.063 868.5 953.063ZM868.5 970.25C860.906 970.25 854.75 964.094 854.75 956.5 854.75 948.906 860.906 942.75 868.5 942.75 876.094 942.75 882.25 948.906 882.25 956.5 882.25 964.094 876.094 970.25 868.5 970.25Z" fill="#595959"/><path d="M1126.5 1088.5 1234.2 1166.28" stroke="#595959" stroke-width="6.875" stroke-linecap="round" stroke-linejoin="round" stroke-miterlimit="10" fill="none" fill-rule="evenodd"/><path d="M775.5 1085.06 1126.12 1085.06C1128.02 1085.06 1129.56 1086.6 1129.56 1088.5 1129.56 1090.4 1128.02 1091.94 1126.12 1091.94L775.5 1091.94C773.602 1091.94 772.062 1090.4 772.062 1088.5 772.062 1086.6 773.602 1085.06 775.5 1085.06ZM775.5 1102.25C767.906 1102.25 761.75 1096.09 761.75 1088.5 761.75 1080.91 767.906 1074.75 775.5 1074.75 783.094 1074.75 789.25 1080.91 789.25 1088.5 789.25 1096.09 783.094 1102.25 775.5 1102.25Z" fill="#595959"/></g></svg>