<svg xmlns="http://www.w3.org/2000/svg" version="1.0" viewBox="0 0 300 290">
  <path d="M133 17h3c1-1 1-1-1-1l-2 1zm-5 1v3h-7l4 1v1c-1 3 2 3 4 0s3-4 2-5h-3zm16 0-7 1-4 1 6 1 4-1h3c0 1 1 1 2-1s1-2-5-1zm8 0 2 1c1 1 2 1 1 2h2c2 0 2 0 2 2l1-1c1-2 4-3 6-1 1 2-1 2-2 1h-2l1 1v3l2-1c1-1 14 11 13 12l1 1 6 3h-1l-1 1v1l2 1h2l1 1 2 3 1 1 2 1c4-1 4-1 3-3l-3-1h-2a66 66 0 0 0-15-17l-4-2-1-2c-1-3-6-6-9-6l-7-1h-3zm-57 1c0 3 4 6 6 6l-1-2-4-4h-1zm16 1h-3v1h3l1-2-2 1zm38 1 2 1 1-1-1-1c-1-1-2 0-2 1zm-29 3c0 2 0 2-2 1s-3-1-3 1h-3c-1-1-2-2-5-1l-5 3h-4c-3 0-3 0-2 1l2 1 1 1h1l1-1 2-1 2-1c0 1 2 2 4 1l-2-1c-1-1-1-1 1-1l2-1 1-1 1 2c-1 1 0 1 1 1l4-1 2-1c1 1 5-1 4-2h-3zm-25 9-3 1c-2 0-9 3-12 6-6 4-9 8-8 8v1l-2 2c-1 2-1 2 2 0l4-3 1-1h-1v-1l2-1 3-1 5-3c2 0 3-1 2-2l5-2c3-1 6-5 4-5l-3 1zm29 2-1 2 3-2c3-4 2-4-2 0zm-10 1c0 2 0 2 1 1v-3l-1 2zm-5 1c-2 2-1 2 2 1 2-1 2-2 1-2l-3 1zm14 2c-1 1-1 3 1 3l2-2c0-2-1-2-3-1zm-31 2h4c1-1 0-2-1-2-2 0-3 1-3 2zm38 1c0 2 3 5 4 4l-1-1-1-1v-1l-1-2c-1-1-1-1-1 1zm-14 0 1 1 1 1 2 3c4 2 2-2-2-5h-2zm-20 4c-2 2-2 2 0 1l2-3-2 2zm1 2-1 2 3-1c3-2 1-3-2-1zm-18 1-1 1-2 3-2 4-4 7-5 9-1 6c-2 3-2 5-1 7a113 113 0 0 1-1 30h1c1-1 1 0 1 1l1 4c1 1 3 1 3-1h-2c-1-3 2-12 3-11v-1c-1-2-1-2-3 0h-1l2-3v-2l-1-2c1-2 0-2-1-1s-1 1-1-2c0-2 0-3 1-2 0 2 1 2 1 1 1-1 0-14-1-13v-4l2-3 1-2 6-12 1-2 1-4v-1l1-2c2 0 3-2 3-3l1-1c1 1 2 0 1-1 0-1-3-2-3 0zm116 4v1l1 1c-1 2 1 3 5 4v1c-2 0-3 2 0 2l1 2c-1 2-1 3 1 4l3 5 1 4c2 1 5 6 5 8l1 3 2 6 1 6 1 8c0 9 1 10 2 13h2a79 79 0 0 0-2-25l-2-5v-2l-1-4-1-3-3-6-3-3-1-3-2-2v-2l-2-5-3-4c-2 0-2-1-2-3 1-3-3-5-4-1zm-60 7 3 3-2-3-3-3 2 3zm-15 6 6 2-10-5 4 3zm-5 12-3 1-2 1h1c3 0 7-3 5-3l-2 1zm41 3c-2 1-2 3 0 3l2-2c0-2 0-2-2-1zm6 1-1 2 1-1 1-1 3-1c-1-1-3-1-4 1zm5-1 1 2c2 2 2 2 2 0-1-2-3-4-3-2zm-27 1c-3 2-7 5-7 7-1 2 1 0 4-2 6-6 6-7 3-5zm4 1 1 1h4c1-2 1-2-1-2l-4 1zm-31 2 1 1h3c1-1 1-2-1-2l-3 1zm5 3-3 3 3-2 5-3 1-1c0-2-2-1-6 3zm24 0c-3 4-1 5 2 1 2-3 3-4 0-4 0 0-2 1-2 3zm-34 5-2 3 3-2 3-4-4 3zm97 14 2 7 2 10 1 4v5l2 11 1 9 1 1 1-16c0-12 0-14 2-14v-2c0-2 0-2-2 0l-2 4c-2 3-2 1-2-4l-1-6-1-3-1-2-1-1-1-2-1-1zm21 13-9 8c0 2 4-1 7-4 1-2 4-3 5-3l2-1h-5zm-152 3v5l2-2v-4l-1-1-1 2zm158 1v1l2 4c2 2 2 4 1 6v14l1-4v-9c1-8-2-16-4-12zm-166 1c-1 0 1 7 4 13l3 3-1-5-2-7c-1-2-1-4-2-3l-1-1h-1zm9 13 1 9 1 7 1 10c2 4 2 4 1-8a142 142 0 0 0-3-26h-1v8z"/>
  <path d="m175 133-4 1-4 2h-1l-21 3a451 451 0 0 1-46 6c-6 0-11 3-13 8l-2 2-1-1h-3l1 2c1 0 2 1 1 2l1 1 4 7c2 9 7 16 12 18 9 5 30 1 35-5 4-4 6-11 6-19l1-8 7-1h6v6l-1-3c-1-2-2-2-2-1 0 2 3 6 3 4l3 6c4 8 8 13 13 14 4 2 19 1 25-2 9-3 13-10 13-23 0-5 1-8 2-8l1-3c0-2 0-2-2-1l-2-1-4-4 2 3 4 3h1l-2 1-1 7c0 11-1 16-5 20-5 6-18 9-29 7-5-1-7-2-9-5-4-4-7-10-7-12l1 1c1 2 2 2 3 1 0-1-3-4-4-3l-2-5c-1-6 0-10 3-12 5-3 15-5 25-6 16-2 17-3 3-3l-11 1zm-18 7c-2 1-3 4-3 5 0 3-2 3-10 4h-5c0-2-4-6-6-6-3 0 1-2 4-2l12-1c11-2 11-2 8 0zm-25 4c4 1 7 6 7 12 0 4-1 5-2 5-2 0-2 0-1 1v2c4 0 2 9-3 14-4 4-10 6-20 7-7 0-9 0-13-2-5-3-10-10-12-20-2-7-2-10 1-13 2-2 15-6 16-5l-1 1-3 2c-2 1-2 1 0 0l9-2 7-1h-10l4-1h21z"/>
  <path d="M127 152h-1l-9-1c-6 0-7 0-6 1l-1 1h-2c1 1-5 6-6 6l3-3c2-3 2-3 0-2l-5 6 3 1h6l4 1-3-1-4-1-1-1 8-6v1c-3 3-3 3 0 6 3 2 3 2 7 0 3-1 3-2 3-4-1-2 0-3 1-3l2 1c1 1 2 0 4-1 2-2 2-3-1-3-2 0-2 0-2 2zm-6 3-1 2-1-2 1-2 1 2zm-6 2-1 1-1-1 1-2 1 2zm-21-3c-1 1 1 2 3 2 1 0 1-1-1-2h-3zm34 4 1 1h3c1-2 1-2-1-2l-3 1zm3 4-1 2c0 2 0 2 1 1v-3zm-26 14 1 2v-4l-1 2zm85-40c1 2 3 2 3 1l-2-2-1 1zm-90 2-2 4 3-2 4-3v-1l-5 2zm18-1-3 2 4 1 3-1 2-1c0-1-2-2-6-1z"/>
  <path d="m175 138 7 1 11 1c2 0 3 1 2 4 0 1 0 2 1 1l1-1c3 0 6-3 5-5 0-2-2-3-2 0l-1 2h-2c0-3-21-5-22-3zm-108 3 4 4 2 2v-2c0-2-6-6-8-6l2 2zm99 2-2 2-1 2h1l1 2 3-2c3-2 3-2 3 0-1 2-1 2 1 1l1 1-2 1v2c1 1 2 2 6 2l4-1v-8l4 3 4 2c2 0 1-1-3-4-6-3-11-4-17-1-4 2-5 1-1-1 3-2 1-3-2-1zm13 6h-3l2-1v-1l-1-2 1 1c1 1 2 2 1 3zm40-5 3 3c2 2 2 2 1 0s-4-5-4-3zm-56 9c-2 1-2 1 0 1 3 1 6 0 3-1l-1-1-3 1zm64 1v1c1 0-4 5-6 5-2 1-7 8-6 9s5-2 5-3v-3c0-1 1-2 3-2 4-1 5-3 5-6l-1-1zm-85 4-1 4 2-4c2-4 1-5-1 0zm-70 7c-3 7-2 13 2 13 2 0 3 1 4 3l3 3c2 1 2 1 1-2l-5-5c-3-2-7-7-4-6h1c-1-1 0-3 1-5v-5l-3 4zm100-4h4l-4-1c-2 0-2 0 0 1zm23 5-3 5c-3 4-2 4 2 0 2-2 3-6 2-6l-1 1zm33 4c-2 4-3 5-11 11l-2 2c4-2 11-8 13-12l3-5-3 4zm-16 4v5a56 56 0 0 1-1 7l-2 2v1c2 0 2 1 2 6l-1 8-4 15-1 9 7-22a316 316 0 0 0 0-31zM67 186l4 4 3 3-3-4-4-3zm17 0 2 3v-3h-2zm46 4-1 1-3 3-1 3 3-3c4-3 5-6 3-6l-1 2zm32 9c0 1 1 2 2 1 3-1 3-2 1-2l-3 1zm-24 2c-1 1-1 1 1 1l5-1c1-1 1-1-1-1l-5 1zm-50 8 1 4v-4c-1-2-1-2-1 0zm50 2h-3v1c1 3 3 2 4-1 1-2 0-3-1 0zm12 0-2 3 1-1 2-3c-1-1-1-1-2 1zm11 1-3 1h-3l2 1 2 1c0 1 2 0 3-2v-2l-1 1zm-39 2-1 2c2 0 5-3 4-3l-3 1zm56 4-15 2-11 2 1 1 10-2a52 52 0 0 0 15-2l4-2h-4zm-57 4c-2 2-1 2 3 0 3-2 3-2 1-2l-4 2zm10-1c-4 1-3 1 10 1h10l-5-1h-15zm-37 5 1 3c2 0 1-1 0-4-2-1-2-1-1 1zm112 6 2 8 1 17c0 11 0 12-3 20l-5 11c-1 2-1 2 1 2l4-4c2-3 7-20 7-27l1-3 3 3 6 7c1 2 3 4 4 3l1 1 1 1 11 5 10 4 12 5c10 4 12 5 17 5h6l-6-2c-7-2-30-11-42-17-9-4-19-14-22-22l-5-9c-2-2-3-5-3-8l-1-3v3zm-63 2h1c2-1 3-2 1-2l-2 2zm9 2v2l4-3-1-1h-1c-1-1-2 0-2 1zm-56 4c0 3 1 4 1 2v-6l-1 3zm7-1c1 3 11 12 12 12l1 1 7 7 7 6 7 4c5 3 6 3 15 3 8-1 10-1 16-4l6-4 1-1a56 56 0 0 0 13-14l2-3c-1 0-4 2-6 6a60 60 0 0 1-15 14l-4 2h-1l-1 1h-11c-13 1-14 0-26-10l-3-2a214 214 0 0 1-20-18zm-9 17-5 12c-2 3-11 9-21 14l-12 6-3 2h3c3 0 6-1 10-4l9-5 7-4 5-3c1 1 2-1 3-4 3-6 5-7 5-3l1 5v9l1 7 1-5 1-7c1-1 1-1 1 1l2 2 1 2 1 1 2 4c2 3 3 4 5 4h2l-2-2-7-11c-5-10-7-18-7-26 1-7-1-5-4 5z"/>
  <path d="m87 278-1 2 2-1 1-2c-1-1-1 0-2 1z"/>
</svg>
