
<svg xmlns="http://www.w3.org/2000/svg" version="1.0" viewBox="0 0 205 262">
  <path d="m100 17-8 2-12 2-18 3-16 8-3 2-2 2-1 2-7 10c0 2 0 2 4 0l7-1c4 1 4-1 1-3-4-1-4-2 0-4 1-2 2-3 1-4l1-1h2l7-4 2-1c2-2 15-5 21-5l6 1c1 1 1 1 1-1 0-1 0-2 4-2 9-2 24-2 30-1h6l3-1c1 1 1 1-1 2h1c3 0 9 2 10 4l4 1 2 2 1 1c3 0 12 7 13 9 0 1 1 2 2 1 2 0 3 1 1 4v2l1-1c0-4 7 3 8 7l1 3 2 2c3 5 3 7 2 17l-2 20a116 116 0 0 1-3 18c-1 10-1 10-3 2l-3-12-2-4-1-3-4-6c-3-2-4-3-12-3l-13 2c-13 3-36 5-38 2l-4-1-10-2H62l-4 1-1 2-1 3h-2l-2-1 1 2v6l-6 20v4l-1-3-2-12-2-13-1-10-1-7v-3c1-2 0-4-3-7l-3-4 2-2 3-4 1-2 7-7 1-1 1-1-12 6c-4 4-8 13-8 18 0 2 2 3 3 0l2-2a330 330 0 0 0 4 22 2453 2453 0 0 1 11 73 299 299 0 0 1 6-62c5-12 6-13 15-13l8 1 7 1 9 2c7 2 21 1 39-2l13-2c7 0 7 0 10 3l3 5 1 3c1 1 3 9 4 19a313 313 0 0 1 2 46c2 1 3-3 3-15l2-15 2-6a3183 3183 0 0 0 8-59c1-5 0-9-4-17-3-6-14-19-22-25a110 110 0 0 0-22-10c-6-3-27-5-34-3zm-5 171-3 1-7 4c-5 4-6 5-6 9v6c1 2 2 2 4-1 5-5 11-7 26-7l14 1 2 1c1 0 5 3 8 7 2 2 3 1 3-5s0-6-3-9l-9-5c-5-2-5-3-9-1l-4 2c-2 2-5 1-7 0l-4-2-2-1-2-1-1 1zm30 7c5 4 5 5 1 3l-4-1h-2l-3-1c-2 1-3 1-3-1s1-3 5-3l6 3zm-25-1c-1 1-1 1 1 2l-5 1h-7c-1-2 2-4 9-4 2 0 3 0 2 1zm11 3h-4c-2-1-2-1-1-2s5 1 5 2zm-14 27c2 10 5 15 11 15 4 0 7-3 9-10 2-8 2-10-1-9H99c-2-1-2-1-2 4zm15 2c1 1-1 7-3 7l-1 2c0 1-1 1-3-1l-2-4-1-2c-2-1 3-4 6-4l4 2z"/>
</svg>